<svg xmlns="http://www.w3.org/2000/svg" width="56" height="57" viewBox="0 0 56 57" fill="none">
  <g clip-path="url(#clip0_443_1371)">
    <path d="M34.7083 37.075C30.2167 37.075 21.2333 32.8167 14.0583 25.6417C9.50833 21.0917 7.93333 16.075 7.875 12.5167L9.39167 10.0667L11.4917 8.4917C11.55 8.4917 11.6667 8.4917 11.725 8.4917C14.4667 8.4917 19.8333 9.30837 25.1417 14.5584C29.3417 18.7584 33.0167 24.1834 35.0583 29.0834C36.9833 33.8084 36.6917 36.375 36.225 36.7834C36.1667 36.8417 35.7 37.075 34.7083 37.075Z" fill="#F8B602"/>
    <path d="M19.1916 28.3834C18.7833 28.3834 18.4916 28.2084 18.375 28.15C17.2666 27.5667 16.45 26.4584 15.9833 25.0584C15.6333 23.8917 15.6333 22.725 15.6333 21.675L17.9083 21.6167C17.9083 22.55 17.9666 23.5417 18.2 24.4167C18.3166 24.7667 18.4333 25.0584 18.6083 25.35C18.6666 25.1167 18.6666 24.65 19.0166 24.2417C19.5416 23.6 20.475 23.425 21.35 23.8917C21.4666 23.95 21.5833 24.0084 21.7 24.0667C21.7583 24.125 21.8166 24.125 21.875 24.1834C21.875 24.1834 21.875 24.1834 21.875 24.125C21.9333 23.95 21.9333 23.7167 21.875 23.3667C21.875 23.25 21.8166 23.1917 21.8166 23.075C21.7583 22.725 21.6416 22.375 21.6416 21.9667C21.6416 21.0917 22.1083 20.275 22.8666 19.9834C23.45 19.75 24.0333 19.8084 24.4416 19.925L23.975 18.2334C23.8583 17.825 23.975 17.4167 24.2666 17.125C24.2666 17.125 24.2666 17.125 24.325 17.0667C23.275 16.8917 22.1083 17.0084 21 17.125L20.7666 14.85C22.05 14.7334 23.5083 14.5584 24.9083 14.85C26.6583 15.2 28.0583 16.1334 28.8166 17.4167C28.9916 17.7084 28.9916 18.1167 28.875 18.4667C28.7 18.8167 28.4083 19.05 28.0583 19.1084C27.5916 19.1667 27.125 19.225 26.6583 19.225L26.7166 19.4C27.0083 20.45 26.8333 21.2667 26.25 21.7917C25.4916 22.4334 24.6166 22.2 24.15 22.0834C24.0916 22.0834 24.0333 22.0834 24.0333 22.025C24.0333 22.1417 24.0916 22.3167 24.15 22.4917C24.15 22.6084 24.2083 22.725 24.2083 22.8417C24.3833 23.6584 24.325 24.3584 24.0916 24.9417C23.6833 25.875 22.75 26.4584 21.8166 26.3417C21.4083 26.2834 21.1166 26.1667 20.8833 25.9917L20.7666 26.75C20.5916 28.0334 19.775 28.2667 19.4833 28.2667C19.3083 28.3834 19.25 28.3834 19.1916 28.3834Z" fill="#2E2E2E"/>
    <path d="M15.225 11.7C14.2917 12.6334 12.8333 12.6334 11.9 11.7C10.9667 10.7667 10.9667 9.30838 11.9 8.37505C12.8333 7.44172 14.2917 7.44172 15.225 8.37505C16.1583 9.30838 16.1583 10.7667 15.225 11.7Z" fill="#A6C44A"/>
    <path d="M13.5333 13.5083C12.6 13.5083 11.725 13.1583 11.0833 12.4583C9.74167 11.1166 9.74167 8.89995 11.0833 7.49995C11.725 6.85828 12.6 6.44995 13.5333 6.44995C14.4667 6.44995 15.3417 6.79995 15.9833 7.49995C17.325 8.84162 17.325 11.0583 15.9833 12.4583C15.3417 13.1583 14.4667 13.5083 13.5333 13.5083ZM13.5333 8.78328C13.1833 8.78328 12.8917 8.89995 12.6583 9.13329C12.1917 9.59995 12.1917 10.4166 12.6583 10.8833C13.125 11.35 13.9417 11.35 14.4083 10.8833C14.875 10.4166 14.875 9.59995 14.4083 9.13329C14.175 8.89995 13.8833 8.78328 13.5333 8.78328Z" fill="#2E2E2E"/>
    <path d="M34.7083 42.5583C28.0583 42.5583 17.7917 37.075 10.2083 29.4916C1.45833 20.7416 1.80833 11.175 3.20833 7.32497L3.49999 6.44997L5.83333 6.6833L5.54166 4.2333L6.29999 3.8833C10.675 2.07497 20.7083 2.3083 28.9917 10.65C38.675 20.3333 45.5 35.2083 40.075 40.6333C38.85 41.8583 37.0417 42.5583 34.7083 42.5583ZM5.07499 8.89997C4.02499 13.1 4.95833 20.975 11.7833 27.8583C18.8417 34.9166 28.7 40.225 34.7083 40.225C36.4 40.225 37.6833 39.8166 38.5583 38.9416C42.525 34.975 36.9833 21.7333 27.475 12.1666C20.3583 5.16663 12.1333 4.46663 7.99166 5.69163L8.39999 9.3083L5.07499 8.89997Z" fill="#2E2E2E"/>
    <path d="M40.95 35.6167C40.8917 37.3667 40.3667 38.825 39.3751 39.8167C38.3834 40.8084 36.925 41.3334 35.175 41.3917L38.6167 53.9917L53.4917 39L40.95 35.6167Z" fill="#A6C44A"/>
    <path d="M37.975 56.15L33.6584 40.2833L35.0584 40.225C36.575 40.1666 37.7417 39.7583 38.5 38.9416C39.2584 38.1833 39.6667 37.0166 39.7834 35.5L39.8417 34.1L55.7084 38.4166L37.975 56.15ZM36.575 42.3833L39.1417 51.8333L51.3334 39.5833L41.8834 37.0166C41.5917 38.475 41.0084 39.6416 40.1334 40.575C39.2584 41.5083 38.0334 42.0916 36.575 42.3833Z" fill="#2E2E2E"/>
    <path d="M26.425 52.9416C25.725 52.9416 25.025 52.9416 24.3833 52.8833L24.5583 50.6083C25.2 50.6666 25.8417 50.6666 26.425 50.6666C26.5417 50.6666 26.6 50.6666 26.7167 50.6666L26.775 52.9416C26.6583 52.9416 26.5417 52.9416 26.425 52.9416ZM30.275 52.65L29.925 50.4333C30.625 50.3166 31.325 50.2 32.025 50.025L32.55 52.2416C31.85 52.3583 31.0333 52.5333 30.275 52.65ZM20.8833 52.3583C20.125 52.1833 19.3667 52.0083 18.6083 51.775L19.3083 49.6166C20.0083 49.85 20.7083 50.025 21.4083 50.1416L20.8833 52.3583ZM15.2833 50.4916C14.5833 50.1416 13.8833 49.7916 13.1833 49.3833L14.35 47.4583C14.9917 47.8083 15.6333 48.1583 16.275 48.45L15.2833 50.4916ZM10.2667 47.3416C9.62499 46.875 9.04166 46.35 8.45832 45.7666L10.0333 44.1333C10.5583 44.6 11.0833 45.125 11.6667 45.5333L10.2667 47.3416ZM6.06666 43.2C5.59999 42.5583 5.07499 41.9166 4.66666 41.275L6.53332 40.05C6.94166 40.6333 7.34999 41.2166 7.81666 41.8L6.06666 43.2ZM2.91666 38.2416C2.56666 37.5416 2.27499 36.7833 1.98332 36.0833L4.08332 35.2666C4.31666 35.9666 4.60832 36.6083 4.95832 37.25L2.91666 38.2416ZM0.933323 32.6416C0.758323 31.8833 0.641656 31.0666 0.52499 30.3083L2.74166 30.0166C2.85832 30.7166 2.97499 31.4166 3.14999 32.1166L0.933323 32.6416ZM2.56666 26.8083H0.291656C0.291656 26.05 0.34999 25.2333 0.408323 24.475L2.68332 24.7083C2.62499 25.35 2.56666 26.05 2.56666 26.8083Z" fill="#2E2E2E"/>
    <path d="M52.0333 31.2416L49.8167 30.8916C49.9333 30.1916 50.05 29.4916 50.1083 28.7333L52.3833 28.9083C52.2667 29.6666 52.2083 30.4833 52.0333 31.2416ZM50.1083 25.4666C50.05 24.7666 49.9917 24.0083 49.875 23.3083L52.0917 22.9583C52.2083 23.7166 52.2667 24.5333 52.325 25.2916L50.1083 25.4666ZM49.175 20.1583C49 19.4583 48.7667 18.7583 48.475 18.1166L50.575 17.3C50.8667 18.0583 51.1 18.7583 51.3333 19.5166L49.175 20.1583ZM47.1333 15.2C46.7833 14.5583 46.375 13.975 45.9667 13.3916L47.8333 12.1083C48.3 12.75 48.7083 13.45 49.0583 14.0916L47.1333 15.2ZM43.9833 10.825C43.5167 10.3 42.9917 9.77496 42.4667 9.30829L43.9833 7.61663C44.5667 8.14163 45.15 8.72496 45.675 9.30829L43.9833 10.825ZM39.9 7.26663C39.3167 6.85829 38.675 6.44996 38.0917 6.09996L39.2 4.11663C39.9 4.52496 40.5417 4.93329 41.1833 5.39996L39.9 7.26663ZM35.175 4.75829C34.475 4.46663 33.8333 4.23329 33.1333 3.99996L33.775 1.84163C34.5333 2.07496 35.2917 2.30829 35.9917 2.59996L35.175 4.75829ZM22.4583 3.35829L22.1083 1.14163C22.8667 1.02496 23.6833 0.908293 24.4417 0.849959L24.6167 3.12496C23.8583 3.18329 23.1583 3.24163 22.4583 3.35829ZM29.9833 3.29996C29.2833 3.18329 28.525 3.12496 27.825 3.06663L27.9417 0.791626C28.7 0.849959 29.5167 0.908293 30.275 1.02496L29.9833 3.29996Z" fill="#2E2E2E"/>
  </g>
  <defs>
    <clipPath id="clip0_443_1371">
      <rect width="56" height="56" fill="white" transform="translate(0 0.5)"/>
    </clipPath>
  </defs>
</svg>