<svg width="28" height="28" viewBox="0 0 28 28" fill="none" xmlns="http://www.w3.org/2000/svg">
<path d="M14 17.5C15.933 17.5 17.5 15.933 17.5 14C17.5 12.067 15.933 10.5 14 10.5C12.067 10.5 10.5 12.067 10.5 14C10.5 15.933 12.067 17.5 14 17.5Z" fill="#FF5B5B"/>
<path d="M24.2783 15.4933L22.6333 14.1517C22.7467 13.4633 22.7467 12.7633 22.6333 12.075L24.2783 10.7333C24.4308 10.6042 24.5418 10.4289 24.5975 10.2315C24.6532 10.0342 24.6509 9.82511 24.5911 9.62916L24.57 9.555C23.9777 7.92707 23.0911 6.42806 21.9583 5.14166L21.8983 5.07333C21.7705 4.92952 21.6013 4.82871 21.4133 4.78316C21.2253 4.73761 21.0278 4.74926 20.8467 4.81666L18.8067 5.565C18.2411 5.13428 17.6246 4.77487 16.9717 4.49666L16.4067 2.345C16.3594 2.14498 16.2547 1.96501 16.1062 1.82594C15.9577 1.68687 15.7721 1.59454 15.5717 1.56166L15.4933 1.54666C13.8008 1.18077 12.0492 1.18077 10.3567 1.54666L10.2783 1.56166C10.0779 1.59454 9.89234 1.68687 9.74383 1.82594C9.59533 1.96501 9.49063 2.14498 9.44334 2.345L8.87334 4.505C8.22561 4.78683 7.61361 5.14655 7.05167 5.57333L5.00334 4.81666C4.82227 4.74926 4.62474 4.73761 4.43674 4.78316C4.24874 4.82871 4.07955 4.92952 3.95167 5.07333L3.89167 5.14166C2.76012 6.42893 1.87392 7.92814 1.28167 9.555L1.26167 9.62916C1.14084 10.0333 1.23667 10.4783 1.51834 10.7333L3.18167 12.0867C3.07001 12.7703 3.07001 13.4663 3.18167 14.15L1.51834 15.4933C1.36586 15.6225 1.25483 15.7978 1.19914 15.9951C1.14346 16.1924 1.14574 16.4015 1.20551 16.5975L1.22667 16.6717C1.82051 18.2952 2.69551 19.7867 3.83667 21.085L3.89667 21.1533C4.02455 21.2971 4.19374 21.3979 4.38174 21.4435C4.56974 21.489 4.76727 21.4774 4.94834 21.41L7.00501 20.6617C7.56395 21.0887 8.17395 21.4487 8.82167 21.73L9.38667 23.89C9.43397 24.09 9.53867 24.27 9.68717 24.4091C9.83567 24.5481 10.0213 24.6405 10.2217 24.6733L10.3 24.6883C12.0188 25.0587 13.7962 25.0587 15.515 24.6883L15.5933 24.6733C15.7937 24.6405 15.9793 24.5481 16.1278 24.4091C16.2763 24.27 16.381 24.09 16.4283 23.89L16.9933 21.73C17.6459 21.4518 18.2624 21.0924 18.8283 20.6617L20.8683 21.41C21.0494 21.4774 21.2469 21.489 21.4349 21.4435C21.6229 21.3979 21.7921 21.2971 21.92 21.1533L21.98 21.085C23.12 19.7867 23.995 18.2952 24.59 16.6717L24.61 16.5975C24.7367 16.1933 24.64 15.7483 24.3583 15.4933H24.2783ZM14 19.8333C10.7783 19.8333 8.16667 17.2217 8.16667 14C8.16667 10.7783 10.7783 8.16666 14 8.16666C17.2217 8.16666 19.8333 10.7783 19.8333 14C19.8333 17.2217 17.2217 19.8333 14 19.8333Z" fill="#FF5B5B"/>
</svg>

