<svg xmlns="http://www.w3.org/2000/svg" width="56" height="57" viewBox="0 0 56 57" fill="none">
  <path d="M55.7083 25.4084H0.291656V24.2417C0.291656 13.7417 12.1333 1.95837 28 1.95837C43.8667 1.95837 55.7083 13.7417 55.7083 24.2417V25.4084ZM2.68332 23.075H53.375C52.5 13.975 41.9417 4.23337 28 4.23337C14.0583 4.23337 3.49999 13.975 2.68332 23.075Z" fill="#2E2E2E"/>
  <path d="M9.10001 18.4667C12.3667 13.3334 19.6 8.90002 28 8.90002C36.4 8.90002 43.575 13.3334 46.9 18.4667H9.10001ZM52.325 53.875H3.67501C2.45001 53.875 1.45834 52.8834 1.45834 51.6584V44.1917H54.5417V51.6584C54.5417 52.8834 53.55 53.875 52.325 53.875Z" fill="#A6C44A"/>
  <path d="M52.325 55.0417H3.67499C1.80832 55.0417 0.291656 53.525 0.291656 51.6584V43.0834H55.7083V51.7167C55.7083 53.525 54.1917 55.0417 52.325 55.0417ZM2.62499 45.3584V51.6584C2.62499 52.2417 3.09166 52.7084 3.67499 52.7084H52.3833C52.9667 52.7084 53.4333 52.2417 53.4333 51.6584V45.3584H2.62499Z" fill="#2E2E2E"/>
  <path d="M49.525 39.1749H6.47501C3.67501 39.1749 1.45834 36.8999 1.45834 34.1583C1.45834 31.3583 3.73334 29.1416 6.47501 29.1416H49.525C52.325 29.1416 54.5417 31.4166 54.5417 34.1583C54.5417 36.9583 52.325 39.1749 49.525 39.1749Z" fill="#F8B602"/>
  <path d="M49.525 40.3416H6.47499C3.03332 40.3416 0.291656 37.5416 0.291656 34.1583C0.291656 30.775 3.09166 27.975 6.47499 27.975H49.525C52.9667 27.975 55.7083 30.775 55.7083 34.1583C55.7083 37.5416 52.9083 40.3416 49.525 40.3416ZM6.47499 30.25C4.31666 30.25 2.56666 32 2.56666 34.1583C2.56666 36.3166 4.31666 38.0666 6.47499 38.0666H49.525C51.6833 38.0666 53.4333 36.3166 53.4333 34.1583C53.4333 32 51.6833 30.25 49.525 30.25H6.47499Z" fill="#F8B602"/>
  <path d="M30.8 36.3167C29.6917 36.3167 28.7 35.9083 27.7667 35.5583C27.0083 35.2667 26.3083 34.975 25.6667 34.975C24.9083 34.9167 24.0333 35.2083 23.1583 35.4417C21.8167 35.85 20.3 36.3167 18.7833 35.7917C18.3167 35.6167 17.9083 35.3833 17.5583 35.2083C17.325 35.0917 17.0917 34.9167 16.8583 34.8583C15.75 34.3917 14.4083 34.6833 12.95 35.0333L12.5417 35.15C10.85 35.5 8.39999 35.85 6.64999 34.3333L8.16666 32.5833C8.92499 33.225 10.15 33.3417 12.075 32.9333L12.4833 32.8167C14.1167 32.4667 15.9833 32.0583 17.7917 32.7583C18.1417 32.9333 18.4333 33.1083 18.7833 33.225C19.075 33.4 19.3667 33.575 19.6 33.6333C20.4167 33.925 21.4083 33.6333 22.575 33.2833C23.625 32.9917 24.675 32.6417 25.9 32.7C26.95 32.7583 27.825 33.1083 28.7 33.4583C29.6333 33.8083 30.5083 34.1583 31.2667 34.0417C31.5583 33.9833 31.9083 33.8667 32.3167 33.6917C32.4917 33.6333 32.6083 33.575 32.7833 33.5167C34.5333 32.8167 36.575 32.6417 38.4417 33.05C38.7333 33.1083 39.0833 33.1667 39.375 33.2833C39.9583 33.4583 40.5417 33.575 41.0667 33.575C41.825 33.575 42.6417 33.225 43.4583 32.9333C43.8083 32.8167 44.1583 32.6417 44.5083 32.525C46.4917 31.825 48.2417 32 49.4083 32.9917L47.8917 34.7417C47.1333 34.1 45.7917 34.5083 45.2083 34.6833C44.9167 34.8 44.5667 34.9167 44.275 35.0333C43.2833 35.4417 42.2333 35.85 41.0083 35.85C41.0083 35.85 41.0083 35.85 40.95 35.85C40.1333 35.85 39.375 35.675 38.675 35.5C38.3833 35.4417 38.15 35.3833 37.8583 35.325C36.4 35.0333 34.8833 35.15 33.5417 35.675C33.425 35.7333 33.25 35.7917 33.1333 35.85C32.6667 36.025 32.2 36.2583 31.6167 36.3167C31.325 36.2583 31.0917 36.3167 30.8 36.3167Z" fill="#2E2E2E"/>
  <path d="M9.11772 19.0613L7.76437 17.1605L6.00617 18.4124L7.35952 20.3131L9.11772 19.0613Z" fill="#2E2E2E"/>
  <path d="M40.0945 11.8803L38.7409 9.97974L36.9829 11.2318L38.3365 13.1324L40.0945 11.8803Z" fill="#2E2E2E"/>
  <path d="M34.5034 9.53797L33.1501 7.63721L31.3919 8.88905L32.7452 10.7898L34.5034 9.53797Z" fill="#2E2E2E"/>
  <path d="M13.4828 14.6626L11.9265 12.9241L10.8834 13.8578L12.4396 15.5964L13.4828 14.6626Z" fill="#2E2E2E"/>
  <path d="M21.0214 10.9073L20.1235 8.75366L18.4544 9.4495L19.3523 11.6032L21.0214 10.9073Z" fill="#2E2E2E"/>
  <path d="M15.4572 20.0792L14.4672 17.9663L13.2523 18.5356L14.2423 20.6485L15.4572 20.0792Z" fill="#2E2E2E"/>
  <path d="M26.6583 9.7167L25.2 7.90837C25.9 7.32503 26.775 6.9167 27.65 6.7417L28.175 8.95837C27.5917 9.13337 27.0667 9.3667 26.6583 9.7167ZM17.7917 16.5417L17.2083 14.325C17.7333 14.2084 18.2583 13.975 18.725 13.7417L19.775 15.7834C19.1333 16.075 18.4917 16.3084 17.7917 16.5417Z" fill="#2E2E2E"/>
  <path d="M30.8662 19.6824L30.1247 17.4701L28.1889 18.119L28.9304 20.3313L30.8662 19.6824Z" fill="#2E2E2E"/>
  <path d="M42.6121 20.4088L41.8706 18.1964L39.9347 18.8453L40.6763 21.0576L42.6121 20.4088Z" fill="#2E2E2E"/>
  <path d="M35.6417 20.8583L34.7083 18.7583C35.2917 18.525 35.875 18.2917 36.4583 18.175L36.925 20.45C36.4583 20.5667 35.9917 20.6833 35.6417 20.8583ZM32.6667 16.3667L31.7333 14.2667C32.3167 14.0333 32.9 13.8583 33.4833 13.6833L33.95 15.9583C33.4833 16.0167 33.075 16.1917 32.6667 16.3667Z" fill="#2E2E2E"/>
  <path d="M26.931 14.8917L26.187 12.6802L24.86 13.1266L25.6041 15.3381L26.931 14.8917Z" fill="#2E2E2E"/>
  <path d="M16.0246 12.0402L15.2795 9.82898L13.9528 10.276L14.6979 12.4872L16.0246 12.0402Z" fill="#2E2E2E"/>
  <path d="M24.0144 20.508L23.2693 18.2969L21.9426 18.7439L22.6877 20.9551L24.0144 20.508Z" fill="#2E2E2E"/>
  <path d="M48.1248 18.7559L47.3807 16.5444L46.0538 16.9909L46.7979 19.2024L48.1248 18.7559Z" fill="#2E2E2E"/>
  <path d="M43.9296 16.2154L43.1855 14.0039L41.8586 14.4504L42.6026 16.6619L43.9296 16.2154Z" fill="#2E2E2E"/>
</svg>